<svg id="visual" viewBox="0 0 2000 1200" width="2000" height="1200" xmlns="http://www.w3.org/2000/svg" xmlns:xlink="http://www.w3.org/1999/xlink" version="1.1"><rect x="0" y="0" width="2000" height="1200" fill="#009455"></rect><path d="M1041 0L1002.3 40C963.7 80 886.3 160 910.7 240C935 320 1061 400 1011 480C961 560 735 640 737.7 720C740.3 800 971.7 880 1011.2 960C1050.7 1040 898.3 1120 822.2 1160L746 1200L0 1200L0 1160C0 1120 0 1040 0 960C0 880 0 800 0 720C0 640 0 560 0 480C0 400 0 320 0 240C0 160 0 80 0 40L0 0Z" fill="#FFFFFF" stroke-linecap="round" stroke-linejoin="miter"></path></svg>